<mxfile host="app.diagrams.net" modified="2023-01-06T13:51:17.745Z" agent="5.0 (Windows NT 10.0; Win64; x64) AppleWebKit/537.36 (KHTML, like Gecko) Chrome/108.0.0.0 Safari/537.36" etag="qwvIej5ohN7GJ9K8Iz3m" version="20.8.2" type="github">
  <diagram id="68KeES-bZqBHZ40qG9mq" name="페이지-1">
    <mxGraphModel dx="1434" dy="764" grid="1" gridSize="10" guides="1" tooltips="1" connect="1" arrows="1" fold="1" page="1" pageScale="1" pageWidth="827" pageHeight="1169" math="0" shadow="0">
      <root>
        <mxCell id="0" />
        <mxCell id="1" parent="0" />
        <mxCell id="UDXZ0YXuvkRt86rhsUxp-4" value="&lt;font style=&quot;font-size: 20px;&quot;&gt;&lt;b&gt;설문조사 리스트를&lt;br style=&quot;border-color: var(--border-color);&quot;&gt;추가하거나 삭제할 수 있다.&lt;/b&gt;&lt;/font&gt;" style="rounded=0;whiteSpace=wrap;html=1;" parent="1" vertex="1">
          <mxGeometry x="10" y="20" width="260" height="60" as="geometry" />
        </mxCell>
        <mxCell id="UDXZ0YXuvkRt86rhsUxp-23" value="" style="whiteSpace=wrap;html=1;aspect=fixed;" parent="1" vertex="1">
          <mxGeometry x="30" y="150" width="200" height="200" as="geometry" />
        </mxCell>
        <mxCell id="UDXZ0YXuvkRt86rhsUxp-24" value="질문 검색창" style="rounded=0;whiteSpace=wrap;html=1;" parent="1" vertex="1">
          <mxGeometry x="30" y="160" width="140" height="25" as="geometry" />
        </mxCell>
        <mxCell id="UDXZ0YXuvkRt86rhsUxp-25" value="설문조사 리스트" style="swimlane;fontStyle=0;childLayout=stackLayout;horizontal=1;startSize=30;horizontalStack=0;resizeParent=1;resizeParentMax=0;resizeLast=0;collapsible=1;marginBottom=0;whiteSpace=wrap;html=1;" parent="1" vertex="1">
          <mxGeometry x="30" y="210" width="140" height="120" as="geometry" />
        </mxCell>
        <mxCell id="UDXZ0YXuvkRt86rhsUxp-26" value="질문1" style="text;strokeColor=none;fillColor=none;align=left;verticalAlign=middle;spacingLeft=4;spacingRight=4;overflow=hidden;points=[[0,0.5],[1,0.5]];portConstraint=eastwest;rotatable=0;whiteSpace=wrap;html=1;" parent="UDXZ0YXuvkRt86rhsUxp-25" vertex="1">
          <mxGeometry y="30" width="140" height="30" as="geometry" />
        </mxCell>
        <mxCell id="UDXZ0YXuvkRt86rhsUxp-27" value="질문2" style="text;strokeColor=none;fillColor=none;align=left;verticalAlign=middle;spacingLeft=4;spacingRight=4;overflow=hidden;points=[[0,0.5],[1,0.5]];portConstraint=eastwest;rotatable=0;whiteSpace=wrap;html=1;" parent="UDXZ0YXuvkRt86rhsUxp-25" vertex="1">
          <mxGeometry y="60" width="140" height="30" as="geometry" />
        </mxCell>
        <mxCell id="UDXZ0YXuvkRt86rhsUxp-28" value="질문3" style="text;strokeColor=none;fillColor=none;align=left;verticalAlign=middle;spacingLeft=4;spacingRight=4;overflow=hidden;points=[[0,0.5],[1,0.5]];portConstraint=eastwest;rotatable=0;whiteSpace=wrap;html=1;" parent="UDXZ0YXuvkRt86rhsUxp-25" vertex="1">
          <mxGeometry y="90" width="140" height="30" as="geometry" />
        </mxCell>
        <mxCell id="UDXZ0YXuvkRt86rhsUxp-29" value="" style="shape=cross;whiteSpace=wrap;html=1;size=0.2;fillColor=#bac8d3;strokeColor=#23445d;" parent="1" vertex="1">
          <mxGeometry x="200" y="320" width="30" height="30" as="geometry" />
        </mxCell>
        <mxCell id="UDXZ0YXuvkRt86rhsUxp-30" value="&lt;b&gt;선택&lt;/b&gt;" style="ellipse;whiteSpace=wrap;html=1;aspect=fixed;fillColor=#bac8d3;strokeColor=#23445d;" parent="1" vertex="1">
          <mxGeometry x="200" y="185" width="30" height="30" as="geometry" />
        </mxCell>
        <mxCell id="UDXZ0YXuvkRt86rhsUxp-31" value="" style="endArrow=classic;html=1;rounded=0;entryX=0;entryY=0.5;entryDx=0;entryDy=0;exitX=1;exitY=0.5;exitDx=0;exitDy=0;" parent="1" source="UDXZ0YXuvkRt86rhsUxp-30" target="UDXZ0YXuvkRt86rhsUxp-32" edge="1">
          <mxGeometry width="50" height="50" relative="1" as="geometry">
            <mxPoint x="238.99660171779817" y="200.60660171779818" as="sourcePoint" />
            <mxPoint x="435.39" y="240" as="targetPoint" />
          </mxGeometry>
        </mxCell>
        <mxCell id="UDXZ0YXuvkRt86rhsUxp-32" value="&lt;b style=&quot;font-size: 15px;&quot;&gt;선택 버튼을 누르면&lt;br&gt;선택된 설문항목을 &lt;br&gt;지울 수&amp;nbsp;있다.&lt;/b&gt;" style="rhombus;whiteSpace=wrap;html=1;strokeColor=#330000;" parent="1" vertex="1">
          <mxGeometry x="350" y="110" width="180" height="90" as="geometry" />
        </mxCell>
        <mxCell id="UDXZ0YXuvkRt86rhsUxp-33" value="" style="whiteSpace=wrap;html=1;aspect=fixed;" parent="1" vertex="1">
          <mxGeometry x="600" y="60" width="200" height="200" as="geometry" />
        </mxCell>
        <mxCell id="UDXZ0YXuvkRt86rhsUxp-34" value="질문 검색창" style="rounded=0;whiteSpace=wrap;html=1;" parent="1" vertex="1">
          <mxGeometry x="600" y="70" width="140" height="25" as="geometry" />
        </mxCell>
        <mxCell id="UDXZ0YXuvkRt86rhsUxp-35" value="설문조사 리스트" style="swimlane;fontStyle=0;childLayout=stackLayout;horizontal=1;startSize=30;horizontalStack=0;resizeParent=1;resizeParentMax=0;resizeLast=0;collapsible=1;marginBottom=0;whiteSpace=wrap;html=1;" parent="1" vertex="1">
          <mxGeometry x="600" y="120" width="150" height="120" as="geometry" />
        </mxCell>
        <mxCell id="UDXZ0YXuvkRt86rhsUxp-36" value="질문1" style="text;strokeColor=none;fillColor=none;align=left;verticalAlign=middle;spacingLeft=4;spacingRight=4;overflow=hidden;points=[[0,0.5],[1,0.5]];portConstraint=eastwest;rotatable=0;whiteSpace=wrap;html=1;" parent="UDXZ0YXuvkRt86rhsUxp-35" vertex="1">
          <mxGeometry y="30" width="150" height="30" as="geometry" />
        </mxCell>
        <mxCell id="UDXZ0YXuvkRt86rhsUxp-37" value="질문2" style="text;strokeColor=none;fillColor=none;align=left;verticalAlign=middle;spacingLeft=4;spacingRight=4;overflow=hidden;points=[[0,0.5],[1,0.5]];portConstraint=eastwest;rotatable=0;whiteSpace=wrap;html=1;" parent="UDXZ0YXuvkRt86rhsUxp-35" vertex="1">
          <mxGeometry y="60" width="150" height="30" as="geometry" />
        </mxCell>
        <mxCell id="UDXZ0YXuvkRt86rhsUxp-38" value="질문3" style="text;strokeColor=none;fillColor=none;align=left;verticalAlign=middle;spacingLeft=4;spacingRight=4;overflow=hidden;points=[[0,0.5],[1,0.5]];portConstraint=eastwest;rotatable=0;whiteSpace=wrap;html=1;" parent="UDXZ0YXuvkRt86rhsUxp-35" vertex="1">
          <mxGeometry y="90" width="150" height="30" as="geometry" />
        </mxCell>
        <mxCell id="UDXZ0YXuvkRt86rhsUxp-39" value="&lt;b&gt;선택&lt;/b&gt;" style="ellipse;whiteSpace=wrap;html=1;aspect=fixed;fillColor=#bac8d3;strokeColor=#23445d;" parent="1" vertex="1">
          <mxGeometry x="770" y="90" width="30" height="30" as="geometry" />
        </mxCell>
        <mxCell id="UDXZ0YXuvkRt86rhsUxp-40" value="" style="verticalLabelPosition=bottom;verticalAlign=top;html=1;shape=mxgraph.basic.x;strokeColor=#23445d;fillColor=#bac8d3;" parent="1" vertex="1">
          <mxGeometry x="780" y="240" width="20" height="20" as="geometry" />
        </mxCell>
        <mxCell id="UDXZ0YXuvkRt86rhsUxp-41" value="" style="endArrow=classic;html=1;rounded=0;entryX=0;entryY=0;entryDx=0;entryDy=0;exitX=1;exitY=0.5;exitDx=0;exitDy=0;" parent="1" source="UDXZ0YXuvkRt86rhsUxp-32" target="UDXZ0YXuvkRt86rhsUxp-35" edge="1">
          <mxGeometry width="50" height="50" relative="1" as="geometry">
            <mxPoint x="440" y="330" as="sourcePoint" />
            <mxPoint x="560" y="330" as="targetPoint" />
          </mxGeometry>
        </mxCell>
        <mxCell id="UDXZ0YXuvkRt86rhsUxp-42" value="" style="endArrow=classic;html=1;rounded=0;entryX=0;entryY=0.5;entryDx=0;entryDy=0;exitX=1;exitY=1;exitDx=0;exitDy=0;" parent="1" source="UDXZ0YXuvkRt86rhsUxp-23" target="UDXZ0YXuvkRt86rhsUxp-43" edge="1">
          <mxGeometry width="50" height="50" relative="1" as="geometry">
            <mxPoint x="230" y="323" as="sourcePoint" />
            <mxPoint x="370" y="360" as="targetPoint" />
          </mxGeometry>
        </mxCell>
        <mxCell id="UDXZ0YXuvkRt86rhsUxp-57" value="" style="edgeStyle=orthogonalEdgeStyle;rounded=0;orthogonalLoop=1;jettySize=auto;html=1;" parent="1" source="UDXZ0YXuvkRt86rhsUxp-43" target="UDXZ0YXuvkRt86rhsUxp-56" edge="1">
          <mxGeometry relative="1" as="geometry" />
        </mxCell>
        <mxCell id="UDXZ0YXuvkRt86rhsUxp-43" value="&lt;b style=&quot;font-size: 15px;&quot;&gt;+버튼을 누르면 설문 항목을&lt;br&gt;추가 할 수 있다.&lt;br&gt;&lt;/b&gt;" style="rhombus;whiteSpace=wrap;html=1;strokeColor=#330000;" parent="1" vertex="1">
          <mxGeometry x="318.5" y="300" width="190" height="110" as="geometry" />
        </mxCell>
        <mxCell id="UDXZ0YXuvkRt86rhsUxp-44" value="" style="endArrow=classic;html=1;rounded=0;exitX=0.971;exitY=0.527;exitDx=0;exitDy=0;exitPerimeter=0;entryX=-0.016;entryY=0.352;entryDx=0;entryDy=0;entryPerimeter=0;" parent="1" source="UDXZ0YXuvkRt86rhsUxp-43" target="UDXZ0YXuvkRt86rhsUxp-45" edge="1">
          <mxGeometry width="50" height="50" relative="1" as="geometry">
            <mxPoint x="350" y="530" as="sourcePoint" />
            <mxPoint x="600" y="358" as="targetPoint" />
            <Array as="points" />
          </mxGeometry>
        </mxCell>
        <mxCell id="UDXZ0YXuvkRt86rhsUxp-45" value="" style="whiteSpace=wrap;html=1;aspect=fixed;" parent="1" vertex="1">
          <mxGeometry x="600" y="310" width="250" height="250" as="geometry" />
        </mxCell>
        <mxCell id="UDXZ0YXuvkRt86rhsUxp-46" value="추가하고 싶은 설문내용" style="rounded=0;whiteSpace=wrap;html=1;strokeColor=#330000;" parent="1" vertex="1">
          <mxGeometry x="600" y="320" width="170" height="40" as="geometry" />
        </mxCell>
        <mxCell id="UDXZ0YXuvkRt86rhsUxp-47" value="유형4" style="ellipse;whiteSpace=wrap;html=1;strokeColor=#330000;" parent="1" vertex="1">
          <mxGeometry x="705" y="395" width="40" height="40" as="geometry" />
        </mxCell>
        <mxCell id="UDXZ0YXuvkRt86rhsUxp-48" value="유형x" style="ellipse;whiteSpace=wrap;html=1;strokeColor=#330000;" parent="1" vertex="1">
          <mxGeometry x="805" y="395" width="40" height="40" as="geometry" />
        </mxCell>
        <mxCell id="UDXZ0YXuvkRt86rhsUxp-49" value="유형3" style="ellipse;whiteSpace=wrap;html=1;strokeColor=#330000;" parent="1" vertex="1">
          <mxGeometry x="655" y="395" width="40" height="40" as="geometry" />
        </mxCell>
        <mxCell id="UDXZ0YXuvkRt86rhsUxp-50" value="유형5" style="ellipse;whiteSpace=wrap;html=1;strokeColor=#330000;" parent="1" vertex="1">
          <mxGeometry x="755" y="395" width="40" height="40" as="geometry" />
        </mxCell>
        <mxCell id="UDXZ0YXuvkRt86rhsUxp-51" value="설문 유형(질문 개수)" style="rounded=1;whiteSpace=wrap;html=1;strokeColor=#330000;" parent="1" vertex="1">
          <mxGeometry x="605" y="365" width="130" height="20" as="geometry" />
        </mxCell>
        <mxCell id="UDXZ0YXuvkRt86rhsUxp-52" value="응답 내용" style="swimlane;fontStyle=0;childLayout=stackLayout;horizontal=1;startSize=30;horizontalStack=0;resizeParent=1;resizeParentMax=0;resizeLast=0;collapsible=1;marginBottom=0;whiteSpace=wrap;html=1;strokeColor=#330000;" parent="1" vertex="1">
          <mxGeometry x="600" y="445" width="135" height="110" as="geometry">
            <mxRectangle x="1210" y="810" width="60" height="30" as="alternateBounds" />
          </mxGeometry>
        </mxCell>
        <mxCell id="UDXZ0YXuvkRt86rhsUxp-53" value="Item 1" style="text;strokeColor=none;fillColor=none;align=left;verticalAlign=middle;spacingLeft=4;spacingRight=4;overflow=hidden;points=[[0,0.5],[1,0.5]];portConstraint=eastwest;rotatable=0;whiteSpace=wrap;html=1;" parent="UDXZ0YXuvkRt86rhsUxp-52" vertex="1">
          <mxGeometry y="30" width="135" height="30" as="geometry" />
        </mxCell>
        <mxCell id="UDXZ0YXuvkRt86rhsUxp-54" value="Item 2" style="text;strokeColor=none;fillColor=none;align=left;verticalAlign=middle;spacingLeft=4;spacingRight=4;overflow=hidden;points=[[0,0.5],[1,0.5]];portConstraint=eastwest;rotatable=0;whiteSpace=wrap;html=1;" parent="UDXZ0YXuvkRt86rhsUxp-52" vertex="1">
          <mxGeometry y="60" width="135" height="30" as="geometry" />
        </mxCell>
        <mxCell id="UDXZ0YXuvkRt86rhsUxp-55" value="Item 3" style="text;strokeColor=none;fillColor=none;align=left;verticalAlign=middle;spacingLeft=4;spacingRight=4;overflow=hidden;points=[[0,0.5],[1,0.5]];portConstraint=eastwest;rotatable=0;whiteSpace=wrap;html=1;" parent="UDXZ0YXuvkRt86rhsUxp-52" vertex="1">
          <mxGeometry y="90" width="135" height="20" as="geometry" />
        </mxCell>
        <mxCell id="UDXZ0YXuvkRt86rhsUxp-58" value="" style="edgeStyle=orthogonalEdgeStyle;rounded=0;orthogonalLoop=1;jettySize=auto;html=1;" parent="1" source="UDXZ0YXuvkRt86rhsUxp-56" target="UDXZ0YXuvkRt86rhsUxp-55" edge="1">
          <mxGeometry relative="1" as="geometry" />
        </mxCell>
        <mxCell id="UDXZ0YXuvkRt86rhsUxp-56" value="&lt;b style=&quot;font-size: 15px;&quot;&gt;추가하고 싶은 설문내용을 적고&lt;br&gt;유형 개수를 선택한뒤 그 유형에&lt;br&gt;맞는 응답 내용을 추가한다.&lt;/b&gt;" style="rhombus;whiteSpace=wrap;html=1;strokeColor=#330000;" parent="1" vertex="1">
          <mxGeometry x="299" y="460" width="230" height="125" as="geometry" />
        </mxCell>
      </root>
    </mxGraphModel>
  </diagram>
</mxfile>
